<?xml version="1.0" standalone="no"?>
<!DOCTYPE svg PUBLIC "-//W3C//DTD SVG 20010904//EN"
 "http://www.w3.org/TR/2001/REC-SVG-20010904/DTD/svg10.dtd">
<svg version="1.0" xmlns="http://www.w3.org/2000/svg"
 width="378.000000pt" height="378.000000pt" viewBox="0 0 378.000000 378.000000"
 preserveAspectRatio="xMidYMid meet">
<metadata>
Created by potrace 1.14, written by Peter Selinger 2001-2017
</metadata>
<g transform="translate(0.000000,378.000000) scale(0.100000,-0.100000)"
fill="#000000" stroke="none">
<path d="M2040 3573 c-76 -10 -146 -35 -205 -73 -16 -11 -39 -24 -51 -29 -11
-5 -33 -20 -50 -33 -62 -50 -289 -174 -354 -193 -14 -4 -29 -11 -35 -15 -5 -5
-24 -10 -42 -13 -17 -3 -36 -8 -41 -11 -5 -3 -51 -7 -104 -10 -135 -7 -194
-32 -243 -99 -25 -35 -30 -51 -29 -96 0 -32 6 -57 12 -59 7 -2 12 -8 12 -13 0
-6 19 -36 41 -68 48 -69 52 -107 20 -189 -43 -108 -21 -179 90 -287 79 -77 98
-108 104 -163 2 -20 4 -37 5 -37 1 0 4 -11 6 -25 7 -36 30 -68 63 -85 33 -17
114 -15 147 3 24 13 35 7 27 -14 -3 -8 4 -29 15 -47 31 -54 61 -87 142 -157
28 -24 29 -24 -65 11 -63 24 -85 29 -161 36 -110 10 -183 -32 -209 -119 -25
-86 -2 -159 79 -239 l45 -46 -2 -263 -2 -264 -25 -2 c-89 -6 -294 -46 -370
-71 -104 -35 -149 -68 -150 -110 0 -13 -6 -23 -12 -24 -7 0 -20 -2 -28 -4 -8
-2 -31 -6 -50 -9 -151 -28 -281 -72 -328 -112 -29 -25 -34 -35 -28 -57 13 -55
188 -122 398 -153 49 -7 93 -15 108 -19 8 -2 21 -4 28 -4 9 -1 10 -6 3 -18
-16 -29 13 -68 71 -96 56 -28 170 -64 222 -72 17 -2 45 -8 61 -13 17 -5 38 -8
47 -6 10 1 20 -2 24 -7 3 -5 9 -7 13 -4 5 2 35 0 67 -5 54 -8 145 -18 285 -29
9 0 23 -20 33 -46 19 -48 43 -63 76 -45 15 8 20 21 20 51 0 25 4 38 10 34 12
-7 566 -8 645 0 28 2 92 7 144 10 103 7 126 11 141 20 6 3 10 2 10 -3 0 -6 15
-7 38 -2 20 5 57 11 82 14 63 8 111 16 140 22 14 3 39 8 55 11 17 2 50 11 75
20 25 8 54 17 65 19 29 6 121 53 134 68 24 28 20 55 -10 83 -32 31 -36 58 -14
87 8 11 15 16 15 12 0 -7 54 28 78 50 36 36 -10 89 -105 123 -75 27 -129 54
-125 64 5 15 -29 81 -51 96 -54 39 -243 97 -324 100 -22 1 -22 2 -23 221 0
198 2 227 21 291 35 115 20 189 -54 257 -21 20 -120 56 -129 47 -2 -2 -26 -7
-53 -10 l-50 -7 65 42 c95 62 205 157 234 203 22 34 11 88 -43 218 -53 127
-203 407 -230 429 -3 3 -19 24 -35 47 -16 24 -45 50 -66 60 l-37 18 27 35
c115 145 127 342 34 545 -13 30 -29 57 -34 60 -6 4 -8 11 -5 16 4 5 2 9 -2 9
-5 0 -19 17 -32 38 -12 21 -38 47 -56 60 -48 31 -152 53 -215 45z m-286 -1325
c-17 -77 -31 -180 -33 -233 l-2 -30 -24 30 c-14 17 -25 34 -25 38 0 4 -11 20
-25 35 -14 15 -24 30 -23 34 3 8 129 148 134 148 1 0 1 -10 -2 -22z m729 -82
c18 -22 38 -46 46 -53 14 -15 18 -10 -53 -88 -22 -24 -28 -27 -36 -15 -5 8 -6
18 -4 22 5 7 -6 99 -21 188 l-6 35 21 -25 c12 -14 36 -43 53 -64z"/>
</g>
</svg>
